Fly_normalized_Motion_pl05
version=1
nRows=14
nColumns=43
inDegrees=yes
endheader
time		pelvis_tilt		pelvis_list		pelvis_rotation		pelvis_tx		pelvis_ty		pelvis_tz		hip_flexion_r		hip_adduction_r		hip_rotation_r		knee_angle_r		ankle_angle_r		subtalar_angle_r		mtp_angle_r		hip_flexion_l		hip_adduction_l		hip_rotation_l		knee_angle_l		ankle_angle_l		subtalar_angle_l		mtp_angle_l		lumbar_extension		lumbar_bending		lumbar_rotation		neck_flexion		neck_lateral_bending		neck_rotation		arm_flex_r		arm_add_r		arm_rot_r		elbow_flex_r		pro_sup_r		wrist_flex_r		wrist_dev_r		hand_finger_flex_r		arm_flex_l		arm_add_l		arm_rot_l		elbow_flex_l		pro_sup_l		wrist_flex_l		wrist_dev_l		hand_finger_flex_l		
0.967500		-0.350077		-21.612760		87.951153		0.044453		1.986781		1.441645		38.806456		3.727913		9.257542		-88.171087		-12.620580		6.236973		-14.153688		56.153595		-7.721317		-5.694522		-98.655756		-6.786456		-10.339334		28.130115		-28.782046		-2.728349		-0.526085		11.714941		-0.671362		3.190046		98.248047		-21.723985		29.424744		75.535598		142.428791		18.206782		10.753464		-21.706712		108.121433		-19.989440		29.669039		69.974627		118.680561		-6.191295		1.147115		28.754645		
0.971995		-0.329333		-21.429527		87.972260		0.044144		1.987134		1.434249		38.895270		3.814709		9.350270		-88.151338		-12.684826		6.319605		-14.105899		56.432465		-7.734733		-5.647868		-98.334655		-6.786712		-10.297541		28.125376		-28.942383		-2.717539		-0.514117		11.755070		-0.674950		3.180292		97.971083		-21.691094		29.579353		75.422362		142.401031		18.257279		10.731471		-21.694669		107.853282		-19.998792		29.753621		69.768762		118.703106		-6.163295		1.187907		28.741027		
0.976490		-0.118048		-21.416750		88.042363		0.043873		1.986903		1.426936		39.134056		4.087431		9.359811		-88.181038		-11.793581		6.820250		-13.285817		56.998798		-7.931278		-5.416096		-98.119435		-6.895636		-9.615623		28.079940		-28.848434		-2.527345		-0.341474		11.431465		-0.720738		3.104954		97.605209		-21.704591		29.757915		75.215216		142.081147		18.246242		10.563774		-21.749321		107.307349		-19.852351		29.578965		69.545310		118.870290		-6.033223		1.314529		28.537863		
0.980985		0.038922		-21.361741		88.094417		0.043483		1.986535		1.419768		39.391905		4.396026		9.392116		-88.408495		-10.297382		6.807115		-12.478356		57.464143		-8.018995		-5.202617		-97.784768		-6.951009		-9.020528		28.043285		-28.823642		-2.369003		-0.224520		11.338390		-0.770361		3.053301		97.263584		-21.661849		29.961472		74.930839		141.843798		18.229415		10.494794		-21.807529		106.795309		-19.739798		29.437906		69.243279		119.041716		-5.874150		1.453591		28.365124		
0.985480		0.069372		-21.185719		88.102728		0.043012		1.986285		1.412596		39.555831		4.558000		9.370061		-88.676533		-8.647537		6.217048		-12.042074		57.772723		-8.030799		-5.165311		-97.414735		-6.944219		-8.684063		28.037159		-29.006559		-2.333029		-0.217097		11.455592		-0.796946		3.052413		96.952349		-21.570071		30.133513		74.707306		141.790709		18.201365		10.554785		-21.854654		106.389667		-19.740069		29.423856		69.021474		119.138271		-5.724480		1.557227		28.315364		
0.989975		0.098347		-20.988804		88.109074		0.042428		1.985890		1.405388		39.718510		4.691928		9.327719		-88.941416		-6.958470		5.565745		-11.657653		58.059186		-8.030003		-5.135237		-97.041617		-6.927905		-8.225329		28.042552		-29.210912		-2.287905		-0.221204		11.486125		-0.813391		3.058571		96.550256		-21.466014		30.244060		74.508690		141.749774		18.122292		10.627203		-21.930320		105.900530		-19.770411		29.370772		68.849398		119.222445		-5.551289		1.683376		28.285242		
0.994470		0.235542		-20.874105		88.267708		0.041765		1.985100		1.398218		40.010104		4.836547		9.065612		-89.159332		-5.714415		4.462684		-10.833357		58.483388		-7.999222		-4.841699		-96.734583		-6.201252		-6.482954		28.165417		-29.292657		-2.088017		-0.359636		11.352841		-0.817840		3.175944		95.945076		-21.145693		30.191408		74.177161		141.768386		17.707662		10.768305		-22.371656		105.123124		-19.666794		28.706943		68.771679		119.770322		-4.535857		2.111977		28.063633		
0.998965		0.194744		-20.717265		88.191948		0.041205		1.984385		1.391065		40.371268		4.919797		9.001255		-89.353181		-5.200830		2.988218		-10.510833		58.756901		-7.960069		-4.877235		-96.260094		-6.101197		-6.008104		28.235461		-29.453101		-2.136842		-0.356189		11.336519		-0.805955		3.185821		95.297757		-21.013605		30.097109		74.077651		141.923008		17.572774		10.808346		-22.540323		104.439592		-19.628013		28.468718		68.588090		119.837406		-4.301167		2.214531		27.953750		
1.003460		0.167302		-20.594667		88.105973		0.040683		1.983401		1.384072		40.832278		5.013935		8.907906		-89.511874		-5.065180		1.313834		-10.096869		59.098665		-7.943114		-4.888336		-95.815061		-5.902115		-5.417425		28.341929		-29.599229		-2.183592		-0.335460		11.322023		-0.765688		3.204508		94.620963		-20.898631		29.968274		74.001409		142.157837		17.415639		10.797833		-22.762258		103.729288		-19.560698		28.147996		68.388845		119.936070		-4.000137		2.346826		27.806287		
1.007955		0.183661		-20.447095		88.013454		0.040084		1.982295		1.377212		41.336303		5.108835		8.822905		-89.648469		-5.180889		0.071644		-9.746162		59.408006		-7.937049		-4.850390		-95.321825		-5.704185		-4.965345		28.437410		-29.802649		-2.189576		-0.273165		11.395139		-0.720558		3.225307		94.019204		-20.842474		29.947414		73.921985		142.361494		17.328826		10.743209		-22.933512		103.072441		-19.538236		27.951486		68.141587		120.024562		-3.753347		2.469740		27.687624		
1.012449		0.096928		-20.451241		87.881595		0.039735		1.980835		1.370310		42.010655		5.177964		8.665788		-89.725732		-5.764328		-2.573217		-9.303159		59.833741		-7.905033		-4.856166		-94.742818		-5.378827		-4.096606		28.604499		-29.802804		-2.325864		-0.257363		11.331896		-0.683333		3.268442		93.149546		-20.677510		29.706377		73.818723		142.710824		17.026159		10.723535		-23.286554		102.120456		-19.329754		27.379132		67.934735		120.021224		-3.535591		2.701631		27.479592		
1.016944		0.146721		-20.181081		87.795628		0.038968		1.979543		1.363575		42.460906		5.214714		8.619571		-89.885392		-5.665605		-2.831899		-9.252165		59.991421		-7.889232		-4.793862		-94.160463		-5.344833		-4.023583		28.618669		-30.188401		-2.282871		-0.179243		11.493382		-0.668436		3.281588		92.673933		-20.662883		29.853883		73.661684		142.731051		17.057414		10.723402		-23.299610		101.573586		-19.444708		27.478706		67.631062		120.042561		-3.474162		2.766661		27.470136		
1.021439		0.082440		-20.187678		87.700750		0.038620		1.977697		1.356745		43.191364		5.249975		8.388522		-89.977006		-6.090409		-5.281078		-9.151884		60.412151		-7.849317		-4.750744		-93.511554		-5.094532		-3.207570		28.794353		-30.197388		-2.376884		-0.222802		11.393875		-0.641826		3.397823		91.679068		-20.305698		29.419841		73.443088		143.058681		16.737345		10.771743		-23.641024		100.539052		-19.340968		26.908359		67.471535		120.014780		-3.319099		2.956279		27.242953		
1.025934		0.097534		-19.981828		87.627601		0.038106		1.975979		1.349943		43.739996		5.271957		8.213218		-90.134508		-5.890173		-6.025010		-9.213431		60.598828		-7.822427		-4.691550		-92.824478		-5.064510		-3.042287		28.837632		-30.501635		-2.384108		-0.208359		11.555932		-0.644074		3.455075		90.947185		-20.113870		29.281380		73.227798		143.103649		16.639620		10.837165		-23.716860		99.780585		-19.411084		26.790794		67.221911		119.989063		-3.301527		3.002339		27.170811		
